<?xml version="1.0" encoding="utf-8"?>
<!-- Generator: Adobe Illustrator 25.2.1, SVG Export Plug-In . SVG Version: 6.00 Build 0)  -->
<svg version="1.1" id="Layer_1" xmlns="http://www.w3.org/2000/svg" xmlns:xlink="http://www.w3.org/1999/xlink" x="0px" y="0px"
	 viewBox="0 0 1341.3 491.7" style="enable-background:new 0 0 1341.3 491.7;" xml:space="preserve">
<style type="text/css">
	.st0{fill:#455560;}
	.st1{fill:#5176BA;}
	.st2{fill:#676C74;}
	.st3{fill:none;stroke:#676C74;stroke-width:0.75;}
</style>
<g>
	<path class="st0" d="M32.6,368.7l5.7-0.4c3.1-0.3,4.3-0.9,4.3-1.7v-62.4c0-0.8-0.5-1-5-1.5l-5-0.3l-0.3-1.7H61
		c16.8,0,25.1,6.8,25.1,17.3c0,12.3-10.8,20.2-25.6,20.2c-3.3,0-6.9-0.3-9.4-0.7V367c0,0.8,0.5,1.1,5,1.5l6.3,0.3l0.3,1.7H32.3
		L32.6,368.7z M77.1,319.6c0-10.8-5.3-17.2-18.2-16.8h-7.7v32.3c2.4,0.7,5.1,1.2,9.3,1.2C70.9,336.3,77.1,330.2,77.1,319.6z"/>
	<path class="st0" d="M89.4,368.7l2.7-0.1c2.7-0.2,3.8-0.4,3.8-1.7v-61.6c0-3.6-0.5-4.6-3.3-5.1l-4-0.9l0.1-1.1l14.7-3.7v35.7
		l0.2,0.1c4.6-3.9,10.8-9.4,18-9.4c3.3,0,6.3,1.1,8.4,3.2c2.5,2.7,3.6,6.4,3.6,11.2v31.7c0,0.8,0.1,1.2,4.5,1.6l2.6,0.1l0.3,1.7
		h-21.9l0.3-1.7l2.9-0.1c3.2-0.2,3.8-0.8,3.8-1.7v-29c0-7.9-3.5-11.2-9.7-11.2c-5.2,0-9.7,2.7-13.1,5.8v34.6c0,0.9,0.5,1.1,4.5,1.4
		l2.8,0.1l0.3,1.7H89.1L89.4,368.7z"/>
	<path class="st0" d="M143.7,368.7l3-0.1c2.7-0.2,3.8-0.4,3.8-1.7v-32.7c0-6-0.8-7.1-4-7.7l-3.3-0.6l0.2-1.1l14.6-3.8v46.1
		c0,0.9,0.5,1.1,4.4,1.4l2.7,0.1l0.3,1.7h-22L143.7,368.7z M147.8,305.4c0-2.6,1.7-5.8,5.4-5.8s5.3,3.2,5.3,5.7
		c0,2.5-1.7,5.7-5.3,5.7C149.5,311,147.8,307.7,147.8,305.4z"/>
	<path class="st0" d="M168.4,368.7l2.9-0.1c2.8-0.2,3.8-0.4,3.8-1.7v-59.9c0-5.2-0.6-6.2-3.5-6.8l-4.1-0.9l0.1-1.1l14.9-3.7v72.6
		c0,0.9,0.4,1.1,4.4,1.4l2.7,0.1l0.3,1.7h-21.8L168.4,368.7z"/>
	<path class="st0" d="M220,363.7l-0.2-0.1c-4,4.2-8.5,8-13.7,8c-6.5,0-11.5-4.9-11.5-11.2c0-7.9,6.2-13.2,26.1-18.2l0.1-3.8
		c0.3-11.3-4.5-14.5-10.7-14.5c-4.3,0-9,2.6-9,3.8c0,0.8,2.5,2.6,2.5,5.4c0,2.3-1.8,4.5-4.7,4.5c-2.7,0-4.7-1.7-4.7-4.3
		c0-5.5,12-12.4,20.4-12.4c9.7,0,14.4,3.9,13.7,17.6l-1.1,23.8c-0.1,3.3,1.1,4.6,3.2,4.6c1.6,0,3.3-1.4,5.1-3.1l0.9,1
		c-2.3,2.9-5.5,7-9.5,7C223,371.8,220.2,369,220,363.7z M220,361.6l0.5-17.5c-15,3.8-18.5,8.4-18.5,14.3c0,5.1,3.3,8.3,7.7,8.3
		C213.6,366.6,216.7,364.7,220,361.6z"/>
	<path class="st0" d="M238,368.7l2.8-0.1c2.8-0.2,3.9-0.4,3.9-1.7v-32.7c0-6-0.8-7.1-3.9-7.7l-3.5-0.6l0.1-1.1l14.7-3.8l-0.2,9.3
		l0.3,0.1c4.6-4,10.8-9.5,18-9.5c3.3,0,6.4,1,8.4,3.2c2.5,2.6,3.6,6.4,3.6,11.3v31.6c0,0.8,0.2,1.1,4.5,1.6l2.7,0.1l0.3,1.7H268
		l0.3-1.7l2.8-0.1c3.2-0.2,3.8-0.8,3.8-1.7v-29c0-7.9-3.5-11.2-9.8-11.2c-5.1,0-9.6,2.7-13.1,5.8v34.6c0,0.9,0.6,1.1,4.5,1.4
		l2.8,0.1l0.3,1.7h-22L238,368.7z"/>
	<path class="st0" d="M299,360.3l0.5-33.2l-8.4-0.2l0.3-1.9l14.5-12.5l1.3,0.3l-0.1,9.8h16l-1.3,4.2h-14.7c0,0-0.8,32.2-0.8,32.3
		c-0.1,5.4,2.7,7.8,7.3,7.8c3.8,0,6.6-1.9,9.2-3.9l0.6,1.1c-4,4-8.5,7.8-13.8,7.8C303.6,372,298.9,369,299,360.3z"/>
	<path class="st0" d="M325.7,368.7l2.7-0.1c2.7-0.2,3.8-0.4,3.8-1.7v-61.6c0-3.6-0.5-4.6-3.3-5.1l-4-0.9l0.1-1.1l14.7-3.7v35.7
		l0.2,0.1c4.6-3.9,10.8-9.4,18-9.4c3.3,0,6.3,1.1,8.4,3.2c2.5,2.7,3.6,6.4,3.6,11.2v31.7c0,0.8,0.1,1.2,4.5,1.6l2.6,0.1l0.3,1.7
		h-21.9l0.3-1.7l2.9-0.1c3.2-0.2,3.8-0.8,3.8-1.7v-29c0-7.9-3.5-11.2-9.7-11.2c-5.2,0-9.7,2.7-13.1,5.8v34.6c0,0.9,0.5,1.1,4.5,1.4
		l2.8,0.1l0.3,1.7h-21.9L325.7,368.7z"/>
	<path class="st0" d="M380.1,368.7l2.8-0.1c2.8-0.2,3.9-0.4,3.9-1.7v-32.7c0-6-0.8-7.1-3.9-7.7l-3.3-0.6l0.1-1.1l14.6-3.8l-0.2,17.4
		h0.2c4-11.5,8.4-17.6,14.6-17.6c3.8,0,6.2,2.7,6.2,5.6c0,2.8-1.8,5.5-5,5.5c-2.6,0-5.1-1.9-5.5-5.7c-4.3,1.3-7.4,6.6-10.4,16.1
		v24.9c0,0.9,0.4,1.2,4.2,1.4l4.4,0.1l0.3,1.7h-23.3L380.1,368.7z"/>
	<path class="st0" d="M417.1,346.7c0-14.4,10.6-25.8,24.4-25.8c13.7,0,23.9,10.8,23.9,25c0,14.7-10.5,26.1-24.2,26.1
		C427.2,372,417.1,361,417.1,346.7z M456.7,347.6c0-8.5-1.8-16.2-5.9-20.4c-2.4-2.5-5.5-4.3-9.7-4.3c-9.3,0-15.3,10.3-15.3,22.2
		c0,8.8,1.9,16.6,6.2,21c2.3,2.5,5.5,4.1,9.6,4.1C450.4,370.1,456.7,359.8,456.7,347.6z"/>
	<path class="st0" d="M468.5,396.7l2.9-0.1c2.7-0.2,3.9-0.4,3.9-1.6v-60.9c0-5.9-0.8-7-3.9-7.6L468,326l0.1-1.1l14.7-3.8l-0.1,9.4
		l0.3,0.2c4.2-5,9.6-9.3,16.5-9.3c11,0,19.3,9.7,19.3,23.5c0,16.3-11.7,27-23.9,27c-4.7,0-9.1-1.3-12.1-2.8h-0.2v26.1
		c0,0.8,0.5,1.1,4.4,1.3l4.6,0.1l0.3,1.7h-23.9L468.5,396.7z M510.5,347.7c0-11.8-5.9-20.9-15.1-20.9c-5.4,0-9.6,3-12.7,6.6v27.8
		c2.8,4.6,7.8,8.6,13.5,8.6C505,369.7,510.5,360.4,510.5,347.7z"/>
	<path class="st0" d="M523.6,368.7l3-0.1c2.7-0.2,3.8-0.4,3.8-1.7v-32.7c0-6-0.8-7.1-4-7.7L523,326l0.2-1.1l14.6-3.8v46.1
		c0,0.9,0.5,1.1,4.4,1.4l2.7,0.1l0.3,1.7h-22L523.6,368.7z M527.7,305.4c0-2.6,1.7-5.8,5.4-5.8s5.3,3.2,5.3,5.7
		c0,2.5-1.7,5.7-5.3,5.7C529.4,311,527.7,307.7,527.7,305.4z"/>
	<path class="st0" d="M549.1,347.7c0-14.9,10.3-26.8,24.3-26.8c8.8,0,15.4,4.3,15.4,10.3c0,3.2-2.4,5.4-4.9,5.4
		c-3.1,0-5.4-2.7-4.9-6.1c0-2.5,1.5-3.3,1.5-4c-0.4-1.3-3.8-3.6-7.6-3.6c-8.7,0-16,8.8-16,21.4c0,12.9,7.3,21.9,17.1,21.9
		c6.2,0,10.5-2.2,14.4-8.5l1.3,0.7c-4.4,8.5-10.6,13.6-19.2,13.6C558.3,371.9,549.1,361.4,549.1,347.7z"/>
	<path class="st0" d="M614,368.7l4.9-0.4c3.2-0.3,4.2-0.9,4.2-1.7v-62.4c0-0.8-0.4-1-4.9-1.5l-4.1-0.3l-0.3-1.7h50.5l1.5,20.2H664
		l-1-4.3c-3-9.1-5.4-13.9-21.2-13.9h-10.3V334l6.9-0.1c9.8-0.2,11.5-1.2,13.3-6.9l1.1-3.1h1.5l-2.2,22.5l-1.5-0.1l-0.2-3.1
		c-0.4-6.1-1.9-6.8-12.5-7.1l-6.4-0.1v30.9c0,0.9,0.5,1.3,5,1.7l6.3,0.3l0.3,1.7h-29.5L614,368.7z"/>
	<path class="st0" d="M705.1,362.6h-0.2c-4.6,4.1-10.7,9.4-17.8,9.4c-3.6,0-6.4-1.1-8.7-3.3c-2.4-2.7-3.3-6.5-3.3-11.3v-31.6
		c0-1-0.1-1.1-4.6-1.4l-2.6-0.3l-0.3-1.6h15.1l-0.2,32.5c0,8,3.6,11.3,9.9,11.3c5.2,0,9.4-2.7,12.6-5.7v-31.9c0-3.3-0.8-4-4.5-4.2
		l-2.8-0.3l-0.3-1.6h15.2v41.3c0,2,0.3,2.8,2.2,3l5.3,0.9l-0.1,1.2l-14.8,3.3L705.1,362.6z"/>
	<path class="st0" d="M722,368.7l2.8-0.1c2.8-0.2,3.9-0.4,3.9-1.7v-32.7c0-6-0.8-7.1-3.9-7.7l-3.5-0.6l0.1-1.1l14.7-3.8l-0.2,9.3
		l0.3,0.1c4.6-4,10.8-9.5,18-9.5c3.3,0,6.4,1,8.4,3.2c2.5,2.6,3.6,6.4,3.6,11.3v31.6c0,0.8,0.2,1.1,4.5,1.6l2.7,0.1l0.3,1.7H752
		l0.3-1.7l2.8-0.1c3.2-0.2,3.8-0.8,3.8-1.7v-29c0-7.9-3.5-11.2-9.8-11.2c-5.1,0-9.6,2.7-13.1,5.8v34.6c0,0.9,0.6,1.1,4.5,1.4
		l2.8,0.1l0.3,1.7h-22L722,368.7z"/>
	<path class="st0" d="M813,362.9l-0.3-0.1c-4.1,4.9-9.5,9-16.4,9c-10.9,0-19.4-9.8-19.4-23.9c0-16.4,11.9-26.5,24.4-26.5
		c4.6,0,8.2,1,11.5,2.7h0.2v-19.5c0-3.3-0.5-4.5-3.3-4.8l-5.2-0.9l0.2-1.2l15.6-3.2v69.7c0,2.1,0.4,2.9,2.2,3.1l5.4,0.9l-0.1,1.2
		l-14.8,2.8V362.9z M813,360.3v-27.8c-2.7-4.9-7.8-8.9-13.4-8.9c-9,0-14.5,9.3-14.5,21.7c0,11.9,6,21.3,15.3,21.3
		C806.1,366.6,809.8,363.7,813,360.3z"/>
</g>
<g>
	<path class="st1" d="M1248,298c12.5,5.6,19.5,11.9,19.5,18.5c0,23.9-90.8,44.4-202.8,44.4c-112,0-202.8-20.5-202.8-44.4
		c0-0.4,0-0.8,0.1-1.3c-3,3.3-4.6,6.7-4.6,10.1c0,27,95.7,51,213.7,51c118,0,213.7-24.1,213.7-51
		C1284.8,315.2,1271.3,305.8,1248,298z"/>
	<path class="st1" d="M1077.4,330.1c-73.6-0.5-133.2-12.2-133.1-26.1c0-5.1,7.8-10.2,21.3-14.5c-18.6,4.7-30.1,10.6-31.3,17
		c-3.5,17.6,45.3,34.5,137.2,34.4c83.4-0.1,133.9-12,137.5-30.8C1198.2,321.9,1143.4,330.6,1077.4,330.1z"/>
	<path class="st1" d="M1106.6,288.9c5.7,1.9,9.1,4.1,9.1,6.2c0,5.2-21.5,9.4-48.1,9.4c-25,0-45.6-3.8-47.8-8.6c0,0,0,0,0,0
		c0,6,10,16.1,49.6,16.3c36.5,0.1,49.6-10.3,49.6-16.3C1118.8,293.3,1114.2,290.8,1106.6,288.9z"/>
</g>
<g>
	<path class="st2" d="M38.1,418.5h3.2v23.7c0,4.4,0.8,7.7,2.5,9.9c1.7,2.2,4.4,3.3,8.2,3.3c2,0,3.6-0.3,4.9-0.8
		c1.3-0.6,2.4-1.4,3.2-2.5c0.8-1.1,1.4-2.5,1.8-4.1c0.4-1.7,0.6-3.6,0.6-5.7v-23.7h3.2v23.6c0,2.9-0.3,5.3-0.9,7.4
		c-0.6,2-1.5,3.7-2.7,5c-1.2,1.3-2.6,2.3-4.4,2.9c-1.7,0.6-3.7,0.9-5.8,0.9c-2.2,0-4.2-0.3-5.9-0.9c-1.7-0.6-3.2-1.6-4.4-2.9
		c-1.2-1.3-2.1-3-2.7-5.1c-0.6-2.1-0.9-4.6-0.9-7.5V418.5z"/>
	<path class="st2" d="M73.7,429.3h3.1v4.2c1.2-1.6,2.6-2.8,4.1-3.7c1.5-0.9,3.3-1.3,5.4-1.3c2,0,3.8,0.4,5.2,1.1
		c1.5,0.7,2.7,1.8,3.7,3.1c1,1.3,1.7,2.8,2.2,4.6s0.7,3.7,0.7,5.8c0,2.4-0.3,4.5-0.9,6.4c-0.6,1.9-1.4,3.5-2.5,4.8
		c-1.1,1.3-2.4,2.3-3.9,3c-1.5,0.7-3.2,1-5.1,1c-1.7,0-3.3-0.3-4.8-1c-1.5-0.7-3-1.9-4.2-3.6v14.4h-3.1V429.3z M76.7,444.5
		c0,1.2,0.1,2.3,0.2,3.2c0.1,0.9,0.3,1.8,0.6,2.5c0.3,0.7,0.7,1.4,1.1,1.9c0.5,0.6,1,1.1,1.7,1.6c0.8,0.7,1.6,1.1,2.5,1.4
		c0.9,0.3,1.8,0.4,2.9,0.4c1.3,0,2.5-0.2,3.6-0.7c1.1-0.5,2-1.2,2.8-2.1s1.4-2.3,1.9-3.8c0.5-1.6,0.7-3.5,0.7-5.7
		c0-2.3-0.3-4.2-0.8-5.7c-0.5-1.5-1.2-2.7-2-3.7c-0.8-0.9-1.7-1.6-2.8-2c-1-0.4-2-0.6-3-0.6c-1.1,0-2.1,0.1-3,0.4
		c-0.9,0.3-1.8,0.7-2.7,1.4c-1.2,0.9-2.2,2.1-2.9,3.6c-0.7,1.4-1,3.3-1,5.5V444.5z"/>
	<path class="st2" d="M104.8,418.5h3.1v15.4c1.5-1.9,3.1-3.3,4.8-4.2c1.7-0.9,3.5-1.3,5.4-1.3c3.1,0,5.4,0.9,6.9,2.7
		c1.5,1.8,2.2,4.3,2.2,7.6v18.7h-3.1v-17.8c0-2.9-0.5-5.1-1.5-6.3c-1-1.3-2.7-1.9-4.9-1.9c-1.1,0-2.2,0.2-3.4,0.6
		c-1.2,0.4-2.3,1.1-3.2,2c-1.1,0.9-1.9,1.9-2.4,2.9c-0.5,1-0.8,2.4-0.8,4.1v16.4h-3.1V418.5z"/>
	<path class="st2" d="M146.4,458.2c-2,0-3.8-0.3-5.4-1c-1.6-0.7-2.9-1.7-4-3c-1.1-1.3-1.9-2.8-2.5-4.7c-0.6-1.8-0.9-3.8-0.9-6.1
		c0-2.3,0.3-4.4,0.9-6.2c0.6-1.9,1.5-3.4,2.6-4.7c1.1-1.3,2.5-2.3,4.1-3c1.6-0.7,3.4-1.1,5.4-1.1c2,0,3.8,0.3,5.4,1
		c1.6,0.7,2.9,1.7,4,3c1.1,1.3,1.9,2.8,2.5,4.7c0.6,1.8,0.9,3.8,0.9,6c0,2.3-0.3,4.4-0.9,6.2c-0.6,1.8-1.5,3.4-2.6,4.8
		s-2.5,2.3-4.1,3S148.4,458.2,146.4,458.2z M146.5,455.5c1.7,0,3.2-0.3,4.4-1c1.2-0.6,2.2-1.5,3-2.6c0.8-1.1,1.3-2.4,1.7-3.9
		c0.4-1.5,0.5-3.1,0.5-4.8c0-1.7-0.2-3.2-0.5-4.7c-0.4-1.5-0.9-2.7-1.7-3.8c-0.8-1.1-1.8-2-3-2.6c-1.2-0.6-2.7-1-4.4-1
		c-1.7,0-3.2,0.3-4.4,1c-1.2,0.6-2.2,1.5-3,2.6c-0.8,1.1-1.3,2.4-1.7,3.8c-0.4,1.5-0.5,3.1-0.5,4.8s0.2,3.3,0.5,4.8
		c0.4,1.5,0.9,2.8,1.7,3.9c0.8,1.1,1.8,2,3,2.6C143.3,455.2,144.8,455.5,146.5,455.5z"/>
	<path class="st2" d="M166.2,418.5h3.1v38.9h-3.1V418.5z"/>
	<path class="st2" d="M197.3,453.2c-1.2,1.6-2.5,2.8-4,3.7c-1.5,0.9-3.3,1.4-5.5,1.4c-2,0-3.8-0.4-5.2-1.2c-1.5-0.8-2.7-1.9-3.6-3.2
		c-1-1.3-1.7-2.9-2.1-4.7c-0.5-1.8-0.7-3.6-0.7-5.5c0-4.8,1.1-8.5,3.3-11.2c2.2-2.7,5.2-4,9-4c1.5,0,3,0.3,4.6,1
		c1.6,0.7,3,1.9,4.4,3.7v-14.6h3.1v38.9h-3.1V453.2z M197.4,442.2c0-1.3-0.1-2.4-0.2-3.3c-0.1-0.9-0.4-1.7-0.6-2.4
		c-0.3-0.7-0.7-1.3-1.1-1.9s-1-1.1-1.7-1.6c-0.9-0.7-1.7-1.1-2.5-1.4c-0.8-0.3-1.8-0.4-2.8-0.4c-1.3,0-2.5,0.2-3.6,0.7
		c-1.1,0.5-2,1.2-2.8,2.1s-1.4,2.2-1.9,3.8c-0.5,1.6-0.7,3.5-0.7,5.7c0,2.3,0.3,4.2,0.8,5.7c0.5,1.5,1.2,2.8,2,3.7
		c0.8,0.9,1.7,1.6,2.7,2c1,0.4,2,0.6,3.1,0.6c1.1,0,2.1-0.1,3-0.4c0.9-0.3,1.8-0.7,2.7-1.4c1.2-0.9,2.2-2.1,2.9-3.6
		c0.7-1.5,1-3.3,1-5.4V442.2z"/>
	<path class="st2" d="M207.8,418.5h3.5v4.7h-3.5V418.5z M208,429.3h3.1v28H208V429.3z"/>
	<path class="st2" d="M218.7,429.3h3.1v4.6c1.5-1.9,3.1-3.3,4.8-4.2c1.7-0.9,3.5-1.3,5.4-1.3c3.1,0,5.4,0.9,6.9,2.7
		c1.5,1.8,2.2,4.3,2.2,7.6v18.7H238v-17.8c0-2.9-0.5-5.1-1.5-6.3c-1-1.3-2.7-1.9-4.9-1.9c-1.1,0-2.2,0.2-3.4,0.6
		c-1.2,0.4-2.3,1.1-3.2,2c-1.1,0.9-1.9,1.9-2.4,2.9c-0.5,1-0.8,2.4-0.8,4.1v16.4h-3.1V429.3z"/>
	<path class="st2" d="M251.4,460.4c0.4,1.9,1.2,3.2,2.6,4.1c1.3,0.9,3.3,1.3,6,1.3c3,0,5.2-0.8,6.7-2.3c1.4-1.5,2.1-4,2.1-7.6v-4.2
		c-1.1,1.6-2.5,2.9-4,3.8c-1.5,0.9-3.4,1.3-5.5,1.3c-2,0-3.8-0.4-5.3-1.2c-1.5-0.8-2.7-1.8-3.7-3.1c-1-1.3-1.7-2.8-2.1-4.5
		c-0.5-1.7-0.7-3.4-0.7-5.3c0-2.2,0.3-4.2,0.9-5.9c0.6-1.8,1.4-3.3,2.4-4.5c1.1-1.3,2.4-2.2,3.9-2.9c1.5-0.7,3.2-1,5.2-1
		c1.5,0,3.1,0.3,4.6,1c1.6,0.7,3,1.9,4.3,3.7v-3.8h3.1v27c0,3.8-0.9,6.7-2.8,8.9c-1.9,2.2-4.9,3.3-9,3.3c-1.6,0-3-0.1-4.3-0.4
		c-1.3-0.3-2.5-0.8-3.5-1.4s-1.8-1.5-2.5-2.5s-1-2.3-1.2-3.8H251.4z M268.8,442.2c0-1.3-0.1-2.4-0.2-3.3c-0.1-0.9-0.3-1.7-0.6-2.4
		c-0.3-0.7-0.7-1.3-1.1-1.9c-0.5-0.5-1-1.1-1.6-1.6c-0.9-0.7-1.7-1.1-2.6-1.4c-0.8-0.3-1.8-0.4-2.8-0.4c-1.3,0-2.5,0.2-3.6,0.7
		c-1.1,0.4-2.1,1.1-2.9,2.1c-0.8,0.9-1.5,2.1-1.9,3.6c-0.5,1.5-0.7,3.2-0.7,5.3c0,2.1,0.3,3.9,0.8,5.3c0.5,1.4,1.2,2.6,2,3.5
		c0.8,0.9,1.7,1.5,2.8,1.9c1,0.4,2.1,0.6,3.1,0.6c1.2,0,2.2-0.1,3-0.4c0.8-0.3,1.7-0.7,2.6-1.4c1.2-0.9,2.2-2.1,2.8-3.6
		c0.7-1.5,1-3.3,1-5.5V442.2z"/>
	<path class="st2" d="M291.1,418.5h3.1v15.4c1.5-1.9,3.1-3.3,4.8-4.2c1.7-0.9,3.5-1.3,5.4-1.3c3.1,0,5.4,0.9,6.9,2.7
		c1.5,1.8,2.2,4.3,2.2,7.6v18.7h-3.1v-17.8c0-2.9-0.5-5.1-1.5-6.3c-1-1.3-2.7-1.9-4.9-1.9c-1.1,0-2.2,0.2-3.4,0.6
		c-1.2,0.4-2.3,1.1-3.2,2c-1.1,0.9-1.9,1.9-2.4,2.9c-0.5,1-0.8,2.4-0.8,4.1v16.4h-3.1V418.5z"/>
	<path class="st2" d="M320.7,429.3h3.1v17.8c0,2.9,0.5,5.1,1.4,6.3c0.9,1.3,2.5,1.9,4.7,1.9c1.1,0,2.2-0.2,3.3-0.7
		c1.1-0.4,2.1-1.1,3.1-2c1-0.9,1.8-1.9,2.3-2.9c0.5-1,0.8-2.4,0.8-4.1v-16.4h3.1v28h-3.1v-4.6c-2.9,3.6-6.2,5.4-10,5.4
		c-3.1,0-5.4-0.9-6.7-2.6c-1.3-1.7-2-4.3-2-7.6V429.3z"/>
	<path class="st2" d="M349.9,429.3h3.1v4.6c1.3-1.9,2.8-3.2,4.3-4.1c1.5-0.9,3.1-1.4,4.7-1.4c2.1,0,3.8,0.5,5,1.4
		c1.3,1,2.2,2.3,2.8,4.1c1.2-1.7,2.7-3.1,4.4-4.1c1.7-1,3.5-1.4,5.4-1.4c2.6,0,4.7,0.7,6.2,2.2c1.5,1.5,2.2,3.8,2.2,7v19.8H385
		v-18.6c0-1.5-0.1-2.6-0.3-3.6c-0.2-0.9-0.6-1.7-1.1-2.3c-0.5-0.6-1.1-1-1.8-1.2c-0.7-0.2-1.5-0.4-2.5-0.4c-0.8,0-1.7,0.2-2.8,0.5
		c-1,0.3-2,0.9-3,1.7c-0.9,0.7-1.6,1.5-2.1,2.5c-0.6,1-0.8,2.1-0.8,3.4v18h-3.1v-18.6c0-2.7-0.5-4.7-1.4-5.8
		c-0.9-1.1-2.3-1.7-4.2-1.7c-1.1,0-2.1,0.2-3,0.7c-0.9,0.5-1.9,1.1-2.8,1.9c-0.3,0.3-0.7,0.6-1,1s-0.7,0.9-1,1.4
		c-0.3,0.5-0.5,1.2-0.7,1.9c-0.2,0.7-0.3,1.6-0.3,2.5v16.6h-3.1V429.3z"/>
	<path class="st2" d="M412.8,453.4c-0.5,0.6-1,1.2-1.6,1.7s-1.4,1.1-2.2,1.5c-0.8,0.4-1.7,0.8-2.7,1c-1,0.3-2,0.4-3.2,0.4
		c-2.9,0-5.2-0.7-6.9-2.1c-1.7-1.4-2.6-3.5-2.6-6.3c0-1.9,0.4-3.4,1.2-4.6c0.8-1.2,1.8-2.1,3.1-2.8c1.3-0.7,2.8-1.2,4.4-1.4
		c1.7-0.3,3.4-0.4,5.1-0.5l5.3-0.2v-0.9c0-2.8-0.5-4.8-1.6-6c-1-1.3-2.9-1.9-5.6-1.9c-1.3,0-2.4,0.1-3.3,0.3c-0.9,0.2-1.7,0.5-2.3,1
		c-0.6,0.4-1.1,0.9-1.4,1.5c-0.4,0.6-0.6,1.2-0.8,1.9l-2.8-0.4c1-4.6,4.6-6.9,10.8-6.9c1.9,0,3.5,0.2,4.8,0.7c1.3,0.5,2.4,1.2,3.2,2
		c0.8,0.9,1.4,2,1.7,3.3c0.4,1.3,0.5,2.8,0.5,4.4v18.4h-3.1V453.4z M412.7,442.4l-5.1,0.2c-2.1,0.1-3.8,0.3-5.2,0.6
		c-1.4,0.3-2.5,0.7-3.4,1.3c-0.9,0.6-1.5,1.3-1.8,2.1s-0.6,1.8-0.6,2.9c0,1.7,0.5,3.1,1.4,4.1c0.9,1,2.6,1.6,4.9,1.6
		c1.2,0,2.3-0.1,3.5-0.4c1.2-0.3,2.1-0.7,2.8-1.3c0.6-0.5,1.2-0.9,1.6-1.4c0.4-0.4,0.7-0.9,1-1.4c0.3-0.5,0.5-1.1,0.6-1.8
		c0.1-0.7,0.2-1.4,0.2-2.3V442.4z"/>
	<path class="st2" d="M423.3,429.3h3.1v4.6c1.5-1.9,3.1-3.3,4.8-4.2c1.7-0.9,3.5-1.3,5.4-1.3c3.1,0,5.4,0.9,6.9,2.7
		c1.5,1.8,2.2,4.3,2.2,7.6v18.7h-3.1v-17.8c0-2.9-0.5-5.1-1.5-6.3c-1-1.3-2.7-1.9-4.9-1.9c-1.1,0-2.2,0.2-3.4,0.6
		c-1.2,0.4-2.3,1.1-3.2,2c-1.1,0.9-1.9,1.9-2.4,2.9c-0.5,1-0.8,2.4-0.8,4.1v16.4h-3.1V429.3z"/>
	<path class="st2" d="M485.2,453.2c-1.2,1.6-2.5,2.8-4,3.7c-1.5,0.9-3.3,1.4-5.5,1.4c-2,0-3.8-0.4-5.2-1.2c-1.5-0.8-2.7-1.9-3.6-3.2
		c-1-1.3-1.7-2.9-2.1-4.7c-0.5-1.8-0.7-3.6-0.7-5.5c0-4.8,1.1-8.5,3.3-11.2c2.2-2.7,5.2-4,9-4c1.5,0,3,0.3,4.6,1
		c1.6,0.7,3,1.9,4.4,3.7v-14.6h3.1v38.9h-3.1V453.2z M485.4,442.2c0-1.3-0.1-2.4-0.2-3.3c-0.1-0.9-0.4-1.7-0.6-2.4
		c-0.3-0.7-0.7-1.3-1.1-1.9s-1-1.1-1.7-1.6c-0.9-0.7-1.7-1.1-2.5-1.4c-0.8-0.3-1.8-0.4-2.8-0.4c-1.3,0-2.5,0.2-3.6,0.7
		c-1.1,0.5-2,1.2-2.8,2.1s-1.4,2.2-1.9,3.8c-0.5,1.6-0.7,3.5-0.7,5.7c0,2.3,0.3,4.2,0.8,5.7c0.5,1.5,1.2,2.8,2,3.7
		c0.8,0.9,1.7,1.6,2.7,2c1,0.4,2,0.6,3.1,0.6c1.1,0,2.1-0.1,3-0.4c0.9-0.3,1.8-0.7,2.7-1.4c1.2-0.9,2.2-2.1,2.9-3.6
		c0.7-1.5,1-3.3,1-5.4V442.2z"/>
	<path class="st2" d="M495.7,418.5h3.5v4.7h-3.5V418.5z M495.9,429.3h3.1v28h-3.1V429.3z"/>
	<path class="st2" d="M509.6,460.4c0.4,1.9,1.2,3.2,2.6,4.1c1.3,0.9,3.3,1.3,6,1.3c3,0,5.2-0.8,6.7-2.3c1.4-1.5,2.1-4,2.1-7.6v-4.2
		c-1.1,1.6-2.5,2.9-4,3.8c-1.5,0.9-3.4,1.3-5.5,1.3c-2,0-3.8-0.4-5.3-1.2c-1.5-0.8-2.7-1.8-3.7-3.1c-1-1.3-1.7-2.8-2.1-4.5
		c-0.5-1.7-0.7-3.4-0.7-5.3c0-2.2,0.3-4.2,0.9-5.9c0.6-1.8,1.4-3.3,2.4-4.5c1.1-1.3,2.4-2.2,3.9-2.9c1.5-0.7,3.2-1,5.2-1
		c1.5,0,3.1,0.3,4.6,1c1.6,0.7,3,1.9,4.3,3.7v-3.8h3.1v27c0,3.8-0.9,6.7-2.8,8.9c-1.9,2.2-4.9,3.3-9,3.3c-1.6,0-3-0.1-4.3-0.4
		c-1.3-0.3-2.5-0.8-3.5-1.4s-1.8-1.5-2.5-2.5s-1-2.3-1.2-3.8H509.6z M527.1,442.2c0-1.3-0.1-2.4-0.2-3.3c-0.1-0.9-0.3-1.7-0.6-2.4
		c-0.3-0.7-0.7-1.3-1.1-1.9c-0.5-0.5-1-1.1-1.6-1.6c-0.9-0.7-1.7-1.1-2.6-1.4c-0.8-0.3-1.8-0.4-2.8-0.4c-1.3,0-2.5,0.2-3.6,0.7
		c-1.1,0.4-2.1,1.1-2.9,2.1c-0.8,0.9-1.5,2.1-1.9,3.6c-0.5,1.5-0.7,3.2-0.7,5.3c0,2.1,0.3,3.9,0.8,5.3c0.5,1.4,1.2,2.6,2,3.5
		c0.8,0.9,1.7,1.5,2.8,1.9c1,0.4,2.1,0.6,3.1,0.6c1.2,0,2.2-0.1,3-0.4c0.8-0.3,1.7-0.7,2.6-1.4c1.2-0.9,2.2-2.1,2.8-3.6
		c0.7-1.5,1-3.3,1-5.5V442.2z"/>
	<path class="st2" d="M537.5,429.3h3.1v4.6c1.5-1.9,3.1-3.3,4.8-4.2c1.7-0.9,3.5-1.3,5.4-1.3c3.1,0,5.4,0.9,6.9,2.7
		c1.5,1.8,2.2,4.3,2.2,7.6v18.7h-3.1v-17.8c0-2.9-0.5-5.1-1.5-6.3c-1-1.3-2.7-1.9-4.9-1.9c-1.1,0-2.2,0.2-3.4,0.6
		c-1.2,0.4-2.3,1.1-3.2,2c-1.1,0.9-1.9,1.9-2.4,2.9c-0.5,1-0.8,2.4-0.8,4.1v16.4h-3.1V429.3z"/>
	<path class="st2" d="M567.1,418.5h3.5v4.7h-3.5V418.5z M567.4,429.3h3.1v28h-3.1V429.3z"/>
	<path class="st2" d="M579.6,431.9h-4.3v-2.6h4.3v-7.7h3.1v7.7h7.8v2.6h-7.8v18.3c0,1.4,0.3,2.5,0.9,3.5c0.6,1,1.6,1.4,3,1.4
		c0.9,0,1.7-0.1,2.3-0.2c0.6-0.1,1.2-0.3,1.7-0.5l0.6,2.6c-0.5,0.2-1.2,0.4-1.9,0.6c-0.8,0.2-1.8,0.3-3,0.3c-1.6,0-2.8-0.3-3.7-0.8
		c-0.9-0.5-1.6-1.3-2-2.1c-0.4-0.9-0.7-1.9-0.8-3.1s-0.2-2.4-0.2-3.6V431.9z"/>
	<path class="st2" d="M596.1,464.5c0.4,0.2,0.9,0.3,1.4,0.4c0.5,0.1,1,0.2,1.5,0.2c0.6,0,1.2-0.1,1.6-0.2c0.4-0.1,0.8-0.4,1.2-0.8
		c0.4-0.4,0.7-0.9,1-1.5c0.3-0.6,0.6-1.4,1-2.3l1.3-3.3l-11.8-27.6h3.6l10,24l8.9-24h3.5L606.7,461c-0.4,1.1-0.9,2-1.3,2.9
		c-0.4,0.9-0.9,1.6-1.5,2.2c-0.6,0.6-1.2,1.1-1.9,1.4s-1.6,0.5-2.7,0.5c-0.8,0-1.5,0-2-0.1c-0.6-0.1-1.2-0.3-1.9-0.5L596.1,464.5z"
		/>
	<path class="st2" d="M671,418.5h3.2v23.7c0,4.4,0.8,7.7,2.5,9.9c1.7,2.2,4.4,3.3,8.3,3.3c2,0,3.6-0.3,4.9-0.8
		c1.3-0.6,2.4-1.4,3.2-2.5c0.8-1.1,1.4-2.5,1.8-4.1c0.4-1.7,0.6-3.6,0.6-5.7v-23.7h3.2v23.6c0,2.9-0.3,5.3-0.9,7.4
		c-0.6,2-1.5,3.7-2.7,5c-1.2,1.3-2.6,2.3-4.4,2.9c-1.7,0.6-3.7,0.9-5.8,0.9c-2.2,0-4.2-0.3-5.9-0.9c-1.7-0.6-3.2-1.6-4.4-2.9
		s-2.1-3-2.7-5.1c-0.6-2.1-0.9-4.6-0.9-7.5V418.5z"/>
	<path class="st2" d="M706.7,429.3h3.1v4.6c1.5-1.9,3.1-3.3,4.8-4.2c1.7-0.9,3.5-1.3,5.4-1.3c3.1,0,5.4,0.9,6.9,2.7
		c1.5,1.8,2.2,4.3,2.2,7.6v18.7H726v-17.8c0-2.9-0.5-5.1-1.5-6.3c-1-1.3-2.7-1.9-4.9-1.9c-1.1,0-2.2,0.2-3.4,0.6s-2.3,1.1-3.2,2
		c-1.1,0.9-1.9,1.9-2.4,2.9c-0.5,1-0.8,2.4-0.8,4.1v16.4h-3.1V429.3z"/>
	<path class="st2" d="M736.5,418.5h3.1v38.9h-3.1V418.5z"/>
	<path class="st2" d="M759.1,458.2c-2,0-3.8-0.3-5.4-1s-2.9-1.7-4-3c-1.1-1.3-1.9-2.8-2.5-4.7c-0.6-1.8-0.9-3.8-0.9-6.1
		c0-2.3,0.3-4.4,0.9-6.2c0.6-1.9,1.5-3.4,2.6-4.7c1.1-1.3,2.5-2.3,4.1-3c1.6-0.7,3.4-1.1,5.4-1.1s3.8,0.3,5.4,1c1.6,0.7,2.9,1.7,4,3
		c1.1,1.3,1.9,2.8,2.5,4.7c0.6,1.8,0.9,3.8,0.9,6c0,2.3-0.3,4.4-0.9,6.2c-0.6,1.8-1.5,3.4-2.6,4.8c-1.1,1.3-2.5,2.3-4.1,3
		C763,457.9,761.2,458.2,759.1,458.2z M759.2,455.5c1.7,0,3.2-0.3,4.4-1c1.2-0.6,2.2-1.5,3-2.6c0.8-1.1,1.3-2.4,1.7-3.9
		c0.4-1.5,0.5-3.1,0.5-4.8c0-1.7-0.2-3.2-0.5-4.7c-0.4-1.5-0.9-2.7-1.7-3.8c-0.8-1.1-1.8-2-3-2.6s-2.7-1-4.4-1c-1.7,0-3.2,0.3-4.4,1
		c-1.2,0.6-2.2,1.5-3,2.6c-0.8,1.1-1.3,2.4-1.7,3.8c-0.4,1.5-0.5,3.1-0.5,4.8s0.2,3.3,0.5,4.8c0.4,1.5,0.9,2.8,1.7,3.9
		c0.8,1.1,1.8,2,3,2.6C756.1,455.2,757.5,455.5,759.2,455.5z"/>
	<path class="st2" d="M802,448.2c-0.5,3.2-1.8,5.6-3.7,7.4c-1.9,1.8-4.5,2.6-7.8,2.6c-2,0-3.8-0.3-5.3-1c-1.6-0.7-2.9-1.7-3.9-2.9
		c-1.1-1.3-1.9-2.8-2.4-4.7c-0.6-1.8-0.9-3.9-0.9-6.1s0.3-4.4,0.9-6.2c0.6-1.9,1.5-3.4,2.6-4.7c1.1-1.3,2.4-2.3,4-3
		c1.6-0.7,3.4-1.1,5.3-1.1c3,0,5.4,0.8,7.2,2.4c1.8,1.6,3,3.8,3.5,6.7l-3,0.8c-0.2-1-0.5-2-0.9-2.8c-0.4-0.9-0.9-1.6-1.5-2.2
		c-0.6-0.6-1.4-1.1-2.3-1.5c-0.9-0.4-2-0.5-3.2-0.5c-1.7,0-3.1,0.3-4.3,0.9c-1.2,0.6-2.1,1.5-2.9,2.5c-0.8,1.1-1.3,2.3-1.7,3.8
		c-0.4,1.5-0.5,3.1-0.5,4.8s0.2,3.4,0.5,4.8c0.4,1.5,0.9,2.8,1.6,3.9c0.7,1.1,1.7,1.9,2.9,2.6c1.2,0.6,2.6,0.9,4.3,0.9
		c2.7,0,4.6-0.7,5.8-2c1.2-1.3,2-3.1,2.5-5.3H802z"/>
	<path class="st2" d="M808.3,418.5h3.1v23.9l14.1-13.1h3.8l-9.7,9.3l10.9,18.8h-3.7l-9.6-16.8l-5.9,5.4v11.4h-3.1V418.5z"/>
	<path class="st2" d="M834.4,418.5h3.5v4.7h-3.5V418.5z M834.7,429.3h3.1v28h-3.1V429.3z"/>
	<path class="st2" d="M845.4,429.3h3.1v4.6c1.5-1.9,3.1-3.3,4.8-4.2c1.7-0.9,3.5-1.3,5.4-1.3c3.1,0,5.4,0.9,6.9,2.7
		c1.5,1.8,2.2,4.3,2.2,7.6v18.7h-3.1v-17.8c0-2.9-0.5-5.1-1.5-6.3c-1-1.3-2.7-1.9-4.9-1.9c-1.1,0-2.2,0.2-3.4,0.6s-2.3,1.1-3.2,2
		c-1.1,0.9-1.9,1.9-2.4,2.9c-0.5,1-0.8,2.4-0.8,4.1v16.4h-3.1V429.3z"/>
	<path class="st2" d="M878,460.4c0.4,1.9,1.2,3.2,2.6,4.1c1.3,0.9,3.3,1.3,6,1.3c3,0,5.2-0.8,6.7-2.3c1.4-1.5,2.1-4,2.1-7.6v-4.2
		c-1.1,1.6-2.5,2.9-4,3.8c-1.5,0.9-3.4,1.3-5.5,1.3c-2,0-3.8-0.4-5.3-1.2c-1.5-0.8-2.7-1.8-3.7-3.1c-1-1.3-1.7-2.8-2.1-4.5
		c-0.5-1.7-0.7-3.4-0.7-5.3c0-2.2,0.3-4.2,0.9-5.9c0.6-1.8,1.4-3.3,2.4-4.5c1.1-1.3,2.4-2.2,3.9-2.9c1.5-0.7,3.2-1,5.2-1
		c1.5,0,3.1,0.3,4.6,1c1.6,0.7,3,1.9,4.3,3.7v-3.8h3.1v27c0,3.8-1,6.7-2.8,8.9c-1.9,2.2-4.9,3.3-9,3.3c-1.6,0-3-0.1-4.3-0.4
		c-1.3-0.3-2.5-0.8-3.5-1.4s-1.8-1.5-2.5-2.5c-0.6-1-1-2.3-1.2-3.8H878z M895.5,442.2c0-1.3-0.1-2.4-0.2-3.3s-0.3-1.7-0.6-2.4
		c-0.3-0.7-0.7-1.3-1.1-1.9c-0.5-0.5-1-1.1-1.7-1.6c-0.9-0.7-1.7-1.1-2.6-1.4c-0.8-0.3-1.8-0.4-2.8-0.4c-1.3,0-2.5,0.2-3.6,0.7
		c-1.1,0.4-2.1,1.1-2.9,2.1s-1.5,2.1-1.9,3.6c-0.5,1.5-0.7,3.2-0.7,5.3c0,2.1,0.3,3.9,0.8,5.3c0.5,1.4,1.2,2.6,2,3.5
		c0.8,0.9,1.7,1.5,2.8,1.9c1,0.4,2.1,0.6,3.1,0.6c1.2,0,2.2-0.1,3-0.4c0.8-0.3,1.7-0.7,2.6-1.4c1.2-0.9,2.2-2.1,2.8-3.6
		c0.7-1.5,1-3.3,1-5.5V442.2z"/>
	<path class="st2" d="M917.8,418.5h3.1v15.4c1.5-1.9,3.1-3.3,4.8-4.2c1.7-0.9,3.5-1.3,5.4-1.3c3.1,0,5.4,0.9,6.9,2.7
		c1.5,1.8,2.2,4.3,2.2,7.6v18.7h-3.1v-17.8c0-2.9-0.5-5.1-1.5-6.3c-1-1.3-2.7-1.9-4.9-1.9c-1.1,0-2.2,0.2-3.4,0.6s-2.3,1.1-3.2,2
		c-1.1,0.9-1.9,1.9-2.4,2.9c-0.5,1-0.8,2.4-0.8,4.1v16.4h-3.1V418.5z"/>
	<path class="st2" d="M947.4,429.3h3.1v17.8c0,2.9,0.5,5.1,1.4,6.3c0.9,1.3,2.5,1.9,4.7,1.9c1.1,0,2.2-0.2,3.3-0.7
		c1.1-0.4,2.1-1.1,3.1-2c1-0.9,1.8-1.9,2.3-2.9c0.5-1,0.8-2.4,0.8-4.1v-16.4h3.1v28h-3.1v-4.6c-2.9,3.6-6.2,5.4-10,5.4
		c-3.1,0-5.4-0.9-6.7-2.6c-1.3-1.7-2-4.3-2-7.6V429.3z"/>
	<path class="st2" d="M976.6,429.3h3.1v4.6c1.3-1.9,2.8-3.2,4.3-4.1c1.5-0.9,3.1-1.4,4.7-1.4c2.1,0,3.8,0.5,5,1.4
		c1.3,1,2.2,2.3,2.8,4.1c1.2-1.7,2.7-3.1,4.4-4.1c1.7-1,3.5-1.4,5.4-1.4c2.6,0,4.7,0.7,6.2,2.2s2.2,3.8,2.2,7v19.8h-3.1v-18.6
		c0-1.5-0.1-2.6-0.3-3.6c-0.2-0.9-0.6-1.7-1.1-2.3c-0.5-0.6-1.1-1-1.8-1.2c-0.7-0.2-1.5-0.4-2.5-0.4c-0.8,0-1.7,0.2-2.8,0.5
		c-1,0.3-2,0.9-3,1.7c-0.9,0.7-1.6,1.5-2.1,2.5c-0.6,1-0.8,2.1-0.8,3.4v18h-3.1v-18.6c0-2.7-0.5-4.7-1.4-5.8
		c-0.9-1.1-2.3-1.7-4.2-1.7c-1.1,0-2.1,0.2-3,0.7c-0.9,0.5-1.9,1.1-2.8,1.9c-0.3,0.3-0.7,0.6-1,1c-0.4,0.4-0.7,0.9-1,1.4
		c-0.3,0.5-0.5,1.2-0.7,1.9s-0.3,1.6-0.3,2.5v16.6h-3.1V429.3z"/>
	<path class="st2" d="M1039.5,453.4c-0.5,0.6-1,1.2-1.7,1.7s-1.4,1.1-2.2,1.5c-0.8,0.4-1.7,0.8-2.7,1c-1,0.3-2,0.4-3.2,0.4
		c-2.9,0-5.2-0.7-6.9-2.1c-1.7-1.4-2.6-3.5-2.6-6.3c0-1.9,0.4-3.4,1.2-4.6c0.8-1.2,1.8-2.1,3.1-2.8c1.3-0.7,2.8-1.2,4.4-1.4
		c1.6-0.3,3.4-0.4,5.1-0.5l5.3-0.2v-0.9c0-2.8-0.5-4.8-1.6-6c-1-1.3-2.9-1.9-5.6-1.9c-1.3,0-2.4,0.1-3.3,0.3c-0.9,0.2-1.7,0.5-2.3,1
		c-0.6,0.4-1.1,0.9-1.4,1.5c-0.4,0.6-0.6,1.2-0.8,1.9l-2.8-0.4c1-4.6,4.6-6.9,10.8-6.9c1.9,0,3.5,0.2,4.8,0.7c1.3,0.5,2.4,1.2,3.2,2
		c0.8,0.9,1.4,2,1.7,3.3c0.4,1.3,0.5,2.8,0.5,4.4v18.4h-3.1V453.4z M1039.4,442.4l-5.1,0.2c-2.1,0.1-3.8,0.3-5.2,0.6
		c-1.4,0.3-2.5,0.7-3.4,1.3c-0.9,0.6-1.5,1.3-1.8,2.1c-0.4,0.8-0.6,1.8-0.6,2.9c0,1.7,0.5,3.1,1.4,4.1s2.6,1.6,4.9,1.6
		c1.2,0,2.3-0.1,3.5-0.4c1.2-0.3,2.1-0.7,2.8-1.3c0.6-0.5,1.2-0.9,1.6-1.4c0.4-0.4,0.7-0.9,1-1.4c0.3-0.5,0.5-1.1,0.6-1.8
		c0.1-0.7,0.2-1.4,0.2-2.3V442.4z"/>
	<path class="st2" d="M1050,429.3h3.1v4.6c1.5-1.9,3.1-3.3,4.8-4.2c1.7-0.9,3.5-1.3,5.4-1.3c3.1,0,5.4,0.9,6.9,2.7
		c1.5,1.8,2.2,4.3,2.2,7.6v18.7h-3.1v-17.8c0-2.9-0.5-5.1-1.5-6.3c-1-1.3-2.7-1.9-4.9-1.9c-1.1,0-2.2,0.2-3.4,0.6s-2.3,1.1-3.2,2
		c-1.1,0.9-1.9,1.9-2.4,2.9c-0.5,1-0.8,2.4-0.8,4.1v16.4h-3.1V429.3z"/>
	<path class="st2" d="M1091.5,429.3h3.1v4.2c1.2-1.6,2.6-2.8,4.1-3.7c1.5-0.9,3.3-1.3,5.4-1.3c2,0,3.8,0.4,5.2,1.1
		c1.5,0.7,2.7,1.8,3.7,3.1c1,1.3,1.7,2.8,2.2,4.6c0.5,1.8,0.7,3.7,0.7,5.8c0,2.4-0.3,4.5-0.9,6.4c-0.6,1.9-1.4,3.5-2.5,4.8
		s-2.4,2.3-3.9,3c-1.5,0.7-3.2,1-5.1,1c-1.7,0-3.3-0.3-4.8-1c-1.5-0.7-3-1.9-4.2-3.6v14.4h-3.1V429.3z M1094.5,444.5
		c0,1.2,0.1,2.3,0.2,3.2c0.1,0.9,0.3,1.8,0.6,2.5s0.7,1.4,1.1,1.9s1,1.1,1.7,1.6c0.8,0.7,1.7,1.1,2.5,1.4s1.8,0.4,2.9,0.4
		c1.3,0,2.5-0.2,3.6-0.7c1.1-0.5,2-1.2,2.8-2.1c0.8-1,1.4-2.3,1.9-3.8c0.5-1.6,0.7-3.5,0.7-5.7c0-2.3-0.3-4.2-0.8-5.7
		c-0.5-1.5-1.2-2.7-2-3.7c-0.8-0.9-1.7-1.6-2.8-2s-2-0.6-3-0.6c-1.1,0-2.1,0.1-3,0.4s-1.8,0.7-2.7,1.4c-1.2,0.9-2.2,2.1-2.9,3.6
		c-0.7,1.4-1,3.3-1,5.5V444.5z"/>
	<path class="st2" d="M1134.5,458.2c-2,0-3.8-0.3-5.4-1s-2.9-1.7-4-3c-1.1-1.3-1.9-2.8-2.5-4.7c-0.6-1.8-0.9-3.8-0.9-6.1
		c0-2.3,0.3-4.4,0.9-6.2c0.6-1.9,1.5-3.4,2.6-4.7c1.1-1.3,2.5-2.3,4.1-3c1.6-0.7,3.4-1.1,5.4-1.1s3.8,0.3,5.4,1c1.6,0.7,2.9,1.7,4,3
		c1.1,1.3,1.9,2.8,2.5,4.7c0.6,1.8,0.9,3.8,0.9,6c0,2.3-0.3,4.4-0.9,6.2c-0.6,1.8-1.5,3.4-2.6,4.8c-1.1,1.3-2.5,2.3-4.1,3
		C1138.3,457.9,1136.5,458.2,1134.5,458.2z M1134.6,455.5c1.7,0,3.2-0.3,4.4-1c1.2-0.6,2.2-1.5,3-2.6c0.8-1.1,1.3-2.4,1.7-3.9
		c0.4-1.5,0.5-3.1,0.5-4.8c0-1.7-0.2-3.2-0.5-4.7c-0.4-1.5-0.9-2.7-1.7-3.8c-0.8-1.1-1.8-2-3-2.6s-2.7-1-4.4-1c-1.7,0-3.2,0.3-4.4,1
		c-1.2,0.6-2.2,1.5-3,2.6c-0.8,1.1-1.3,2.4-1.7,3.8c-0.4,1.5-0.5,3.1-0.5,4.8s0.2,3.3,0.5,4.8c0.4,1.5,0.9,2.8,1.7,3.9
		c0.8,1.1,1.8,2,3,2.6C1131.4,455.2,1132.9,455.5,1134.6,455.5z"/>
	<path class="st2" d="M1155.1,431.9h-4.3v-2.6h4.3v-7.7h3.1v7.7h7.8v2.6h-7.8v18.3c0,1.4,0.3,2.5,0.9,3.5c0.6,1,1.6,1.4,3,1.4
		c0.9,0,1.7-0.1,2.3-0.2c0.6-0.1,1.2-0.3,1.7-0.5l0.6,2.6c-0.5,0.2-1.2,0.4-1.9,0.6c-0.8,0.2-1.8,0.3-3,0.3c-1.6,0-2.8-0.3-3.7-0.8
		s-1.6-1.3-2-2.1c-0.4-0.9-0.7-1.9-0.8-3.1c-0.1-1.2-0.2-2.4-0.2-3.6V431.9z"/>
	<path class="st2" d="M1193,450c-0.4,2.4-1.6,4.4-3.4,5.9c-1.8,1.5-4.5,2.3-7.9,2.3c-3.9,0-7-1.3-9.2-3.9c-2.2-2.6-3.3-6.2-3.3-10.7
		c0-2.5,0.3-4.6,0.9-6.5c0.6-1.9,1.5-3.5,2.6-4.8c1.1-1.3,2.4-2.3,3.9-2.9c1.5-0.7,3.2-1,5-1c2.1,0,3.9,0.4,5.4,1.1
		c1.5,0.7,2.7,1.7,3.6,2.9c0.9,1.2,1.6,2.7,2,4.3c0.4,1.7,0.6,3.5,0.6,5.4v2h-21.1c0,1.6,0.2,3.1,0.6,4.5c0.4,1.4,1,2.6,1.8,3.6
		s1.8,1.9,2.9,2.4c1.2,0.6,2.5,0.9,4,0.9c1.4,0,2.6-0.1,3.5-0.4s1.8-0.7,2.4-1.2c0.6-0.5,1.1-1.1,1.5-1.8c0.4-0.7,0.7-1.4,0.9-2.3
		H1193z M1190.3,441.4c0-1.5-0.2-2.9-0.5-4.2c-0.3-1.3-0.8-2.4-1.5-3.3c-0.7-0.9-1.6-1.6-2.7-2.1c-1.1-0.5-2.4-0.8-3.9-0.8
		c-2.7,0-4.8,0.9-6.4,2.6s-2.6,4.3-2.9,7.8H1190.3z"/>
	<path class="st2" d="M1199.9,429.3h3.1v4.6c1.5-1.9,3.1-3.3,4.8-4.2c1.7-0.9,3.5-1.3,5.4-1.3c3.1,0,5.4,0.9,6.9,2.7
		c1.5,1.8,2.2,4.3,2.2,7.6v18.7h-3.1v-17.8c0-2.9-0.5-5.1-1.5-6.3c-1-1.3-2.7-1.9-4.9-1.9c-1.1,0-2.2,0.2-3.4,0.6s-2.3,1.1-3.2,2
		c-1.1,0.9-1.9,1.9-2.4,2.9c-0.5,1-0.8,2.4-0.8,4.1v16.4h-3.1V429.3z"/>
	<path class="st2" d="M1231.1,431.9h-4.3v-2.6h4.3v-7.7h3.1v7.7h7.8v2.6h-7.8v18.3c0,1.4,0.3,2.5,0.9,3.5c0.6,1,1.6,1.4,3,1.4
		c0.9,0,1.7-0.1,2.3-0.2c0.6-0.1,1.2-0.3,1.7-0.5l0.6,2.6c-0.5,0.2-1.2,0.4-1.9,0.6c-0.8,0.2-1.8,0.3-3,0.3c-1.6,0-2.8-0.3-3.7-0.8
		s-1.6-1.3-2-2.1c-0.4-0.9-0.7-1.9-0.8-3.1c-0.1-1.2-0.2-2.4-0.2-3.6V431.9z"/>
	<path class="st2" d="M1247.1,418.5h3.5v4.7h-3.5V418.5z M1247.3,429.3h3.1v28h-3.1V429.3z"/>
	<path class="st2" d="M1275.5,453.4c-0.5,0.6-1,1.2-1.7,1.7s-1.4,1.1-2.2,1.5c-0.8,0.4-1.7,0.8-2.7,1c-1,0.3-2,0.4-3.2,0.4
		c-2.9,0-5.2-0.7-6.9-2.1c-1.7-1.4-2.6-3.5-2.6-6.3c0-1.9,0.4-3.4,1.2-4.6c0.8-1.2,1.8-2.1,3.1-2.8c1.3-0.7,2.8-1.2,4.4-1.4
		c1.6-0.3,3.4-0.4,5.1-0.5l5.3-0.2v-0.9c0-2.8-0.5-4.8-1.6-6c-1-1.3-2.9-1.9-5.6-1.9c-1.3,0-2.4,0.1-3.3,0.3c-0.9,0.2-1.7,0.5-2.3,1
		c-0.6,0.4-1.1,0.9-1.4,1.5c-0.4,0.6-0.6,1.2-0.8,1.9l-2.8-0.4c1-4.6,4.6-6.9,10.8-6.9c1.9,0,3.5,0.2,4.8,0.7c1.3,0.5,2.4,1.2,3.2,2
		c0.8,0.9,1.4,2,1.7,3.3c0.4,1.3,0.5,2.8,0.5,4.4v18.4h-3.1V453.4z M1275.4,442.4l-5.1,0.2c-2.1,0.1-3.8,0.3-5.2,0.6
		c-1.4,0.3-2.5,0.7-3.4,1.3c-0.9,0.6-1.5,1.3-1.8,2.1c-0.4,0.8-0.6,1.8-0.6,2.9c0,1.7,0.5,3.1,1.4,4.1s2.6,1.6,4.9,1.6
		c1.2,0,2.3-0.1,3.5-0.4c1.2-0.3,2.1-0.7,2.8-1.3c0.6-0.5,1.2-0.9,1.6-1.4c0.4-0.4,0.7-0.9,1-1.4c0.3-0.5,0.5-1.1,0.6-1.8
		c0.1-0.7,0.2-1.4,0.2-2.3V442.4z"/>
	<path class="st2" d="M1286.1,418.5h3.1v38.9h-3.1V418.5z"/>
</g>
<line class="st3" x1="643.2" y1="417.4" x2="643.2" y2="466.4"/>
<g>
	<path class="st1" d="M46.2,53.7c-5.7-16.2-7-19-17.8-20.1l-10.3-0.8l-0.8-4.2h69.1l-0.8,4.2l-11.1,0.6c-9.2,0.6-12.4,2.8-7.8,16.2
		l43.2,128.3h0.5L149,72.9l-6.7-19.2c-5.7-15.9-7.6-19-18.4-20.1l-10.3-0.8l-0.8-4.2h68.8l-0.8,4.2l-11.1,0.6
		c-9.4,0.6-11.9,3.3-7.8,16.2l44.3,127.8h0.5l35.6-108.5c9.7-28.2,8.9-32.9-10.5-34.9l-8.6-1.1l-0.8-4.2h58.3l-0.8,4.2l-6.5,0.8
		c-13,2-14.6,4.7-27.3,42.1L202.5,206h-6.2L152,80.2h-0.3L105.3,206h-6.5L46.2,53.7z"/>
	<path class="st1" d="M263.2,146c0-37.1,24.3-66.9,58.3-66.9c26.7,0,42.1,17,42.1,38.5c0,2.5-0.3,4.7-0.5,7.3l-78.8-0.6
		c-0.5,3.3-1.1,9.5-1.1,13.4c0,32.4,18.4,54.4,42.7,54.4c15.4,0,26.7-5.6,36.7-21.2l3,1.7c-11.3,21.2-27,34-48.3,34
		C286.5,206.5,263.2,180.3,263.2,146z M343.2,119.8c0.3-19.5-7.8-36-24.3-36c-14.8,0-29.4,15.9-34,36.3L343.2,119.8z"/>
	<path class="st1" d="M376.4,198.7l7.3-0.3c7-0.6,9.4-1.1,9.4-4.2V44.5c0-13.1-1.6-15.6-8.6-17l-10.3-2.2l0.3-2.8l37.3-9.2v181.6
		c0,2.2,1.1,2.8,11.1,3.6l6.8,0.3l0.8,4.2h-54.5L376.4,198.7z"/>
	<path class="st1" d="M440.1,198.7l7.3-0.3c7-0.6,9.4-1.1,9.4-4.2V44.5c0-13.1-1.6-15.6-8.6-17l-10.3-2.2l0.3-2.8l37.3-9.2v181.6
		c0,2.2,1.1,2.8,11.1,3.6l6.8,0.3l0.8,4.2h-54.5L440.1,198.7z"/>
	<path class="st1" d="M507.8,200.4l-2.4-33.8h4.6l5.7,16.2c6.7,12.3,17,19.2,28.6,19.2c15.7,0,27-10,27-24.3
		c0-15.3-12.1-22.3-30-28.5c-16.2-5.9-32.9-13.9-32.9-35.4c0-19.8,16.5-34.9,39.1-34.9c9.4,0,17.3,2,24.3,4.7l8.6-2.8l1.6,33.5h-4.6
		L566.4,91c-4.6-3.6-11.3-7.3-19.7-7.3c-14.6,0-23.2,8.4-23.2,20.9c0,14.8,11.6,19.8,28.3,25.9c18.1,6.7,35.4,14.2,35.4,37.7
		c0,20.4-16.7,38.5-44.8,38.5C529.2,206.8,517.8,204.3,507.8,200.4z"/>
	<path class="st1" d="M596.9,268.7l7.3-0.3c6.7-0.6,9.7-1.1,9.7-3.9V112.2c0-14.8-1.9-17.6-9.7-19l-8.6-1.4l0.3-2.8l36.7-9.5
		l-0.3,23.4l0.8,0.6c10.5-12.6,24-23.2,41.3-23.2c27.5,0,48.3,24.3,48.3,58.9c0,40.7-29.2,67.5-59.7,67.5c-11.9,0-22.7-3.3-30.2-7
		h-0.5v65.3c0,2,1.4,2.8,11.1,3.3l11.6,0.3l0.8,4.2h-59.7L596.9,268.7z M702,146c0-29.6-14.8-52.2-37.8-52.2
		c-13.5,0-24,7.5-31.9,16.5v69.5c7,11.4,19.4,21.5,33.7,21.5C688.2,201.2,702,177.8,702,146z"/>
	<path class="st1" d="M734.9,198.7l7-0.3c7-0.6,9.7-1.1,9.7-4.2v-81.7c0-15.1-1.9-17.9-9.7-19.2l-8.4-1.4l0.3-2.8l36.4-9.5
		l-0.5,43.5h0.5c10-28.7,21.1-44.1,36.4-44.1c9.4,0,15.4,6.7,15.4,13.9c0,7-4.6,13.7-12.4,13.7c-6.5,0-12.7-4.7-13.8-14.2
		c-10.8,3.3-18.6,16.5-25.9,40.2v62.2c0,2.2,1.1,3.1,10.5,3.6l11.1,0.3l0.8,4.2h-58.3L734.9,198.7z"/>
	<path class="st1" d="M829.4,198.7l7.6-0.3c6.8-0.6,9.5-1.1,9.5-4.2v-81.7c0-15.1-1.9-17.9-10-19.2l-8.4-1.4l0.5-2.8l36.4-9.5v115.2
		c0,2.2,1.4,2.8,11.1,3.6l6.8,0.3l0.8,4.2h-55.1L829.4,198.7z M839.7,40.3c0-6.4,4.3-14.5,13.5-14.5s13.2,8.1,13.2,14.2
		s-4.3,14.2-13.2,14.2C844,54.2,839.7,46.1,839.7,40.3z"/>
	<path class="st1" d="M892.3,198.7l7-0.3c7-0.6,9.7-1.1,9.7-4.2v-81.7c0-15.1-1.9-17.9-9.7-19.2l-8.6-1.4l0.3-2.8l36.7-9.5
		l-0.5,23.2l0.8,0.3c11.6-10,27-23.7,45.1-23.7c8.4,0,15.9,2.5,21.1,8.1c6.2,6.4,8.9,15.9,8.9,28.2v78.9c0,2,0.5,2.8,11.3,3.9
		l6.7,0.3l0.8,4.2h-54.5l0.8-4.2l7-0.3c8.1-0.6,9.4-2,9.4-4.2v-72.5c0-19.8-8.6-27.9-24.6-27.9c-12.7,0-24,6.7-32.7,14.5v86.5
		c0,2.2,1.6,2.8,11.3,3.6l7,0.3l0.8,4.2h-55.1L892.3,198.7z"/>
	<path class="st1" d="M1025.7,241.4c0-16.5,16.7-28.7,30.2-34.3v-0.6c-15.4-1.7-26.2-9.2-26.2-19.8c0-13.4,15.1-24,28.3-27.6
		c0,0,0.3-0.3,0.3-0.6c-13.2-5-24.6-18.4-24.6-36c0-24.5,20-43.2,45.4-43.2c11.6,0,21.6,3.9,29.4,9.5l33.2-4.5l-1.6,13.1l-26.2-3.3
		l-0.3,1.1c5.9,5.9,10.5,15.1,10.5,25.4c0,23.4-20.2,41.8-46.2,41.8c-5.4,0-11.9-1.1-14.8-1.7c-8.4,2-16.5,7.8-16.5,15.6
		c0,8.4,7,12.3,21.1,12.3c7,0,22.4-0.8,30.5-0.8c25.1,0,39.7,12.8,39.7,31.8c0,30.1-27.8,52.7-67.5,52.7
		C1043,272.4,1025.7,260.4,1025.7,241.4z M1124.8,231.6c0-14.8-9.4-24.3-32.9-25.1c-8.6-0.3-17.5,0.6-30.5,1.4
		c-8.4,3.3-20.2,14.5-20.2,27.9c0,18.1,17.5,30.1,41,30.1C1105.3,265.9,1124.8,250.6,1124.8,231.6z M1105.3,122.6
		c0-23.2-8.6-39.1-26.5-39.1c-14.8,0-25.6,15.1-25.6,36c0,23.4,10.5,38.8,25.6,38.8C1094.5,158.3,1105.3,144.3,1105.3,122.6z"/>
</g>
</svg>
